<svg version="1.2" baseProfile="tiny-ps" xmlns="http://www.w3.org/2000/svg" viewBox="0 0 402 401" width="402" height="401">
	<title>edit-svg</title>
	<style>
		tspan { white-space:pre }
		.shp0 { fill: #0065ff } 
	</style>
	<path id="Layer" class="shp0" d="M370.59 251.97C365.07 251.97 360.59 256.45 360.59 261.97L360.59 350.76C360.57 367.32 347.15 380.75 330.59 380.76L50 380.76C33.44 380.75 20.02 367.32 20 350.76L20 90.17C20.02 73.61 33.44 60.19 50 60.17L138.79 60.17C144.31 60.17 148.79 55.7 148.79 50.17C148.79 44.65 144.31 40.17 138.79 40.17L50 40.17C22.4 40.2 0.03 62.57 0 90.17L0 350.77C0.03 378.37 22.4 400.73 50 400.77L330.59 400.77C358.19 400.73 380.56 378.37 380.59 350.77L380.59 261.97C380.59 256.45 376.11 251.97 370.59 251.97L370.59 251.97Z" />
	<path id="Layer" fill-rule="evenodd" class="shp0" d="M388.36 26.18C405.91 43.76 405.91 72.23 388.36 89.82L209.96 268.23C208.74 269.45 207.22 270.33 205.56 270.79L120.86 294.26C117.39 295.22 113.67 294.24 111.12 291.69C108.57 289.14 107.59 285.42 108.55 281.95L132.02 197.25C132.48 195.59 133.36 194.07 134.58 192.85L312.99 14.44C330.56 -3.13 359.05 -3.13 376.63 14.44L388.36 26.18ZM203.46 246.44L349.47 100.42L302.38 53.33L156.37 199.35L203.46 246.44ZM132.55 270.27L184.59 255.85L146.96 218.22L132.55 270.27ZM374.22 75.68C383.97 65.91 383.97 50.09 374.22 40.32L362.48 28.58C352.72 18.82 336.89 18.82 327.13 28.58L316.52 39.19L363.62 86.28L374.22 75.68Z" />
</svg>